HIERARCHY
ROOT newVegas:Hips
{
	OFFSET 0.000000 96.479958 0.000000
	CHANNELS 6 Xposition Yposition Zposition Xrotation Yrotation Zrotation
	JOINT newVegas:Pelvis
	{
		OFFSET 0.000000 0.000000 0.000000
		CHANNELS 3 Xrotation Yrotation Zrotation
		JOINT newVegas:LeftUpLeg
		{
			OFFSET 18.735201 -5.666702 -4.541200
			CHANNELS 3 Xrotation Yrotation Zrotation
			JOINT newVegas:LeftLeg
			{
				OFFSET -0.021200 -31.938179 0.493100
				CHANNELS 3 Xrotation Yrotation Zrotation
				JOINT newVegas:LeftFoot
				{
					OFFSET 0.021200 -31.938179 -4.336299
					CHANNELS 3 Xrotation Yrotation Zrotation
					JOINT newVegas:LeftToeBase
					{
						OFFSET 0.943001 -26.722000 15.023500
						CHANNELS 3 Xrotation Yrotation Zrotation
						End Site
						{
							OFFSET 0.000000 30.670183 0.000000
						}
					}
				}
				JOINT newVegas:Left_PantLeg
				{
					OFFSET 0.663870 -9.044666 -1.108900
					CHANNELS 3 Xrotation Yrotation Zrotation
					End Site
					{
						OFFSET 1.415995 20.635357 0.000000
					}
				}
			}
		}
		JOINT newVegas:RightUpLeg
		{
			OFFSET -18.735201 -5.666702 -4.541200
			CHANNELS 3 Xrotation Yrotation Zrotation
			JOINT newVegas:RightLeg
			{
				OFFSET 0.018946 -31.938133 0.493100
				CHANNELS 3 Xrotation Yrotation Zrotation
				JOINT newVegas:RightFoot
				{
					OFFSET -0.018946 -31.938126 -4.336299
					CHANNELS 3 Xrotation Yrotation Zrotation
					JOINT newVegas:RightToeBase
					{
						OFFSET -0.943001 -26.722004 15.023500
						CHANNELS 3 Xrotation Yrotation Zrotation
						End Site
						{
							OFFSET 0.000000 30.670187 0.000000
						}
					}
				}
				JOINT newVegas:Right_PantLeg
				{
					OFFSET -0.661674 -9.044716 -1.108900
					CHANNELS 3 Xrotation Yrotation Zrotation
					End Site
					{
						OFFSET -1.415958 20.635269 0.000000
					}
				}
			}
		}
	}
	JOINT newVegas:Spine
	{
		OFFSET 0.000000 10.199997 -0.299500
		CHANNELS 3 Xrotation Yrotation Zrotation
		JOINT newVegas:Spine1
		{
			OFFSET 0.000000 11.900002 -1.516600
			CHANNELS 3 Xrotation Yrotation Zrotation
			JOINT newVegas:Spine2
			{
				OFFSET 0.000000 13.600006 -2.842500
				CHANNELS 3 Xrotation Yrotation Zrotation
				JOINT newVegas:Neck
				{
					OFFSET 0.000000 9.624100 -2.890100
					CHANNELS 3 Xrotation Yrotation Zrotation
					JOINT newVegas:Head
					{
						OFFSET 0.000000 14.068802 -1.351900
						CHANNELS 3 Xrotation Yrotation Zrotation
						JOINT newVegas:Hair_Back
						{
							OFFSET 0.000000 3.231903 -17.524799
							CHANNELS 3 Xrotation Yrotation Zrotation
							End Site
							{
								OFFSET 0.000000 19.849884 0.000000
							}
						}
						JOINT newVegas:Hair_Front
						{
							OFFSET 0.000000 31.260406 4.573800
							CHANNELS 3 Xrotation Yrotation Zrotation
							JOINT newVegas:Hair_Front1
							{
								OFFSET 0.000000 2.284103 11.993300
								CHANNELS 3 Xrotation Yrotation Zrotation
								JOINT newVegas:Hair_Front2
								{
									OFFSET 0.000000 2.284103 11.993300
									CHANNELS 3 Xrotation Yrotation Zrotation
									End Site
									{
										OFFSET 0.000000 12.208862 0.000000
									}
								}
							}
						}
						JOINT newVegas:Jowel
						{
							OFFSET 0.000000 -7.458206 6.864100
							CHANNELS 3 Xrotation Yrotation Zrotation
							End Site
							{
								OFFSET 0.000000 19.849884 0.000000
							}
						}
					}
				}
				JOINT newVegas:LeftShoulder
				{
					OFFSET 15.263000 10.923401 -0.547700
					CHANNELS 3 Xrotation Yrotation Zrotation
					JOINT newVegas:LeftArm
					{
						OFFSET 25.438599 -2.830597 -13.032500
						CHANNELS 3 Xrotation Yrotation Zrotation
						JOINT newVegas:LeftForeArm
						{
							OFFSET 29.960503 0.000000 0.000000
							CHANNELS 3 Xrotation Yrotation Zrotation
							JOINT newVegas:LeftHand
							{
								OFFSET 27.849251 0.000000 0.000000
								CHANNELS 3 Xrotation Yrotation Zrotation
								JOINT newVegas:LeftHandThumb1
								{
									OFFSET 4.487587 -3.305161 6.305391
									CHANNELS 3 Xrotation Yrotation Zrotation
									JOINT newVegas:LeftHandThumb2
									{
										OFFSET 5.480453 -3.164139 3.164143
										CHANNELS 3 Xrotation Yrotation Zrotation
										JOINT newVegas:LeftHandThumb3
										{
											OFFSET 5.159721 -2.978973 2.978967
											CHANNELS 3 Xrotation Yrotation Zrotation
											End Site
											{
												OFFSET 2.494507 5.926697 1.738678
											}
										}
									}
								}
								JOINT newVegas:LeftHandIndex1
								{
									OFFSET 18.578728 -0.527832 5.208049
									CHANNELS 3 Xrotation Yrotation Zrotation
									JOINT newVegas:LeftHandIndex2
									{
										OFFSET 3.192009 0.000000 0.000000
										CHANNELS 3 Xrotation Yrotation Zrotation
										JOINT newVegas:LeftHandIndex3
										{
											OFFSET 3.835129 0.000000 0.000000
											CHANNELS 3 Xrotation Yrotation Zrotation
											End Site
											{
												OFFSET -0.034599 3.816971 0.371180
											}
										}
									}
								}
								JOINT newVegas:LeftHandMiddle1
								{
									OFFSET 18.476105 0.000000 0.000000
									CHANNELS 3 Xrotation Yrotation Zrotation
									JOINT newVegas:LeftHandMiddle2
									{
										OFFSET 3.324875 0.000000 0.000000
										CHANNELS 3 Xrotation Yrotation Zrotation
										JOINT newVegas:LeftHandMiddle3
										{
											OFFSET 4.596550 0.000000 0.000000
											CHANNELS 3 Xrotation Yrotation Zrotation
											End Site
											{
												OFFSET 0.057701 4.578827 0.399218
											}
										}
									}
								}
								JOINT newVegas:LeftHandRing1
								{
									OFFSET 17.732719 0.121887 -4.201567
									CHANNELS 3 Xrotation Yrotation Zrotation
									JOINT newVegas:LeftHandRing2
									{
										OFFSET 2.733170 0.000000 0.000000
										CHANNELS 3 Xrotation Yrotation Zrotation
										JOINT newVegas:LeftHandRing3
										{
											OFFSET 3.178268 0.000000 0.000000
											CHANNELS 3 Xrotation Yrotation Zrotation
											End Site
											{
												OFFSET 0.119102 3.170624 0.185394
											}
										}
									}
								}
								JOINT newVegas:LeftHandPinky1
								{
									OFFSET 15.989624 -0.606689 -7.535461
									CHANNELS 3 Xrotation Yrotation Zrotation
									JOINT newVegas:LeftHandPinky2
									{
										OFFSET 2.538986 0.000000 0.000000
										CHANNELS 3 Xrotation Yrotation Zrotation
										JOINT newVegas:LeftHandPinky3
										{
											OFFSET 2.593102 0.000000 0.000000
											CHANNELS 3 Xrotation Yrotation Zrotation
											End Site
											{
												OFFSET -0.150902 2.584198 0.152708
											}
										}
									}
								}
							}
							JOINT newVegas:Left_Sleeve
							{
								OFFSET 0.267448 -0.649796 0.577675
								CHANNELS 3 Xrotation Yrotation Zrotation
								End Site
								{
									OFFSET 0.000000 15.991241 0.000000
								}
							}
							JOINT newVegas:Left_CapeC
							{
								OFFSET 15.715958 -8.608795 -6.935905
								CHANNELS 3 Xrotation Yrotation Zrotation
								JOINT newVegas:Left_CapeC1
								{
									OFFSET 0.000000 -8.688499 0.000000
									CHANNELS 3 Xrotation Yrotation Zrotation
									End Site
									{
										OFFSET 0.000000 8.688499 0.000000
									}
								}
							}
						}
						JOINT newVegas:Left_CapeB
						{
							OFFSET 26.118385 -8.608795 -7.079235
							CHANNELS 3 Xrotation Yrotation Zrotation
							JOINT newVegas:Left_CapeB1
							{
								OFFSET 0.000000 -8.688499 0.000000
								CHANNELS 3 Xrotation Yrotation Zrotation
								End Site
								{
									OFFSET 0.000000 8.688499 0.000000
								}
							}
						}
						JOINT newVegas:Left_CapeA
						{
							OFFSET 5.115639 -8.608795 -10.395809
							CHANNELS 3 Xrotation Yrotation Zrotation
							JOINT newVegas:Left_CapeA1
							{
								OFFSET 0.000000 -8.688499 0.000000
								CHANNELS 3 Xrotation Yrotation Zrotation
								End Site
								{
									OFFSET 0.000000 8.688499 0.000000
								}
							}
						}
					}
				}
				JOINT newVegas:RightShoulder
				{
					OFFSET -15.263000 10.923401 -0.547700
					CHANNELS 3 Xrotation Yrotation Zrotation
					JOINT newVegas:RightArm
					{
						OFFSET -25.438599 -2.830597 -13.032500
						CHANNELS 3 Xrotation Yrotation Zrotation
						JOINT newVegas:RightForeArm
						{
							OFFSET -29.960503 0.000000 0.000000
							CHANNELS 3 Xrotation Yrotation Zrotation
							JOINT newVegas:RightHand
							{
								OFFSET -27.849251 0.000000 0.000000
								CHANNELS 3 Xrotation Yrotation Zrotation
								JOINT newVegas:RightHandThumb1
								{
									OFFSET -4.487587 -3.305161 6.305391
									CHANNELS 3 Xrotation Yrotation Zrotation
									JOINT newVegas:RightHandThumb2
									{
										OFFSET -5.480453 -3.164139 3.164143
										CHANNELS 3 Xrotation Yrotation Zrotation
										JOINT newVegas:RightHandThumb3
										{
											OFFSET -5.159721 -2.978973 2.978967
											CHANNELS 3 Xrotation Yrotation Zrotation
											End Site
											{
												OFFSET -2.494507 5.926697 1.738678
											}
										}
									}
								}
								JOINT newVegas:RightHandIndex1
								{
									OFFSET -18.578728 -0.527832 5.208049
									CHANNELS 3 Xrotation Yrotation Zrotation
									JOINT newVegas:RightHandIndex2
									{
										OFFSET -3.192009 0.000000 0.000000
										CHANNELS 3 Xrotation Yrotation Zrotation
										JOINT newVegas:RightHandIndex3
										{
											OFFSET -3.835129 0.000000 0.000000
											CHANNELS 3 Xrotation Yrotation Zrotation
											End Site
											{
												OFFSET 0.034599 3.816971 0.371180
											}
										}
									}
								}
								JOINT newVegas:RightHandMiddle1
								{
									OFFSET -18.476105 0.000000 0.000000
									CHANNELS 3 Xrotation Yrotation Zrotation
									JOINT newVegas:RightHandMiddle2
									{
										OFFSET -3.324875 0.000000 0.000000
										CHANNELS 3 Xrotation Yrotation Zrotation
										JOINT newVegas:RightHandMiddle3
										{
											OFFSET -4.596550 0.000000 0.000000
											CHANNELS 3 Xrotation Yrotation Zrotation
											End Site
											{
												OFFSET -0.057701 4.578827 0.399218
											}
										}
									}
								}
								JOINT newVegas:RightHandRing1
								{
									OFFSET -17.732719 0.121887 -4.201567
									CHANNELS 3 Xrotation Yrotation Zrotation
									JOINT newVegas:RightHandRing2
									{
										OFFSET -2.733170 0.000000 0.000000
										CHANNELS 3 Xrotation Yrotation Zrotation
										JOINT newVegas:RightHandRing3
										{
											OFFSET -3.178268 0.000000 0.000000
											CHANNELS 3 Xrotation Yrotation Zrotation
											End Site
											{
												OFFSET -0.119102 3.170624 0.185394
											}
										}
									}
								}
								JOINT newVegas:RightHandPinky1
								{
									OFFSET -15.989624 -0.606689 -7.535461
									CHANNELS 3 Xrotation Yrotation Zrotation
									JOINT newVegas:RightHandPinky2
									{
										OFFSET -2.538986 0.000000 0.000000
										CHANNELS 3 Xrotation Yrotation Zrotation
										JOINT newVegas:RightHandPinky3
										{
											OFFSET -2.593102 0.000000 0.000000
											CHANNELS 3 Xrotation Yrotation Zrotation
											End Site
											{
												OFFSET 0.150902 2.584198 0.152708
											}
										}
									}
								}
							}
							JOINT newVegas:Right_CapeC
							{
								OFFSET -15.715958 -8.608795 -6.935905
								CHANNELS 3 Xrotation Yrotation Zrotation
								JOINT newVegas:Right_CapeC1
								{
									OFFSET 0.000000 -8.688499 0.000000
									CHANNELS 3 Xrotation Yrotation Zrotation
									End Site
									{
										OFFSET 0.000000 8.688499 0.000000
									}
								}
							}
							JOINT newVegas:Right_Sleeve
							{
								OFFSET -0.267448 -0.649994 0.577675
								CHANNELS 3 Xrotation Yrotation Zrotation
								End Site
								{
									OFFSET 0.000000 15.991302 0.000000
								}
							}
						}
						JOINT newVegas:Right_CapeA
						{
							OFFSET -5.115540 -8.608795 -10.395824
							CHANNELS 3 Xrotation Yrotation Zrotation
							JOINT newVegas:Right_CapeA1
							{
								OFFSET 0.000000 -8.688499 0.000000
								CHANNELS 3 Xrotation Yrotation Zrotation
								End Site
								{
									OFFSET 0.000000 8.688499 0.000000
								}
							}
						}
						JOINT newVegas:Right_CapeB
						{
							OFFSET -26.118187 -8.608795 -7.079266
							CHANNELS 3 Xrotation Yrotation Zrotation
							JOINT newVegas:Right_CapeB1
							{
								OFFSET 0.000000 -8.688499 0.000000
								CHANNELS 3 Xrotation Yrotation Zrotation
								End Site
								{
									OFFSET 0.000000 8.688499 0.000000
								}
							}
						}
					}
				}
				JOINT newVegas:Left_Collar
				{
					OFFSET 18.625099 8.655502 8.828100
					CHANNELS 3 Xrotation Yrotation Zrotation
					JOINT newVegas:Left_Collar1
					{
						OFFSET 14.783401 10.540405 -1.259500
						CHANNELS 3 Xrotation Yrotation Zrotation
						End Site
						{
							OFFSET 0.000000 18.199875 0.000000
						}
					}
				}
				JOINT newVegas:Collar_Back
				{
					OFFSET 0.000000 15.630707 -20.132601
					CHANNELS 3 Xrotation Yrotation Zrotation
					End Site
					{
						OFFSET 0.000000 22.523010 0.000000
					}
				}
				JOINT newVegas:Left_Peck
				{
					OFFSET 17.239599 -5.132599 25.482599
					CHANNELS 3 Xrotation Yrotation Zrotation
					End Site
					{
						OFFSET 0.000000 22.523010 0.000000
					}
				}
				JOINT newVegas:Right_Peck
				{
					OFFSET -17.239599 -5.132202 25.482599
					CHANNELS 3 Xrotation Yrotation Zrotation
					End Site
					{
						OFFSET 0.000000 22.523010 0.000000
					}
				}
				JOINT newVegas:Right_Collar
				{
					OFFSET -18.625099 8.655792 8.828100
					CHANNELS 3 Xrotation Yrotation Zrotation
					JOINT newVegas:Right_Collar1
					{
						OFFSET -14.783401 10.539993 -1.259500
						CHANNELS 3 Xrotation Yrotation Zrotation
						End Site
						{
							OFFSET 0.000000 18.199631 0.000000
						}
					}
				}
			}
		}
		JOINT newVegas:Belly
		{
			OFFSET 0.000000 -6.540398 9.014299
			CHANNELS 3 Xrotation Yrotation Zrotation
			End Site
			{
				OFFSET 0.000000 11.566666 0.000000
			}
		}
	}
	JOINT newVegas:ElvisFacialAnim_Joint
	{
		OFFSET 1.000000 -95.330101 -8.825800
		CHANNELS 3 Xrotation Yrotation Zrotation
		End Site
		{
			OFFSET 0.000000 35.315800 0.000000
		}
	}
}
MOTION
Frames: 4
Frame Time: 0.033333
0.429193 85.611778 3.554180 3.071434 5.909201 3.402969 0.000000 -0.000000 -0.000000 -40.747730 -8.294332 12.863555 39.049428 -0.520201 -1.480062 1.159512 -6.133351 -17.330444 0.000000 0.000000 -0.000000 -0.000000 0.000000 0.000002 -38.044721 -6.200936 -31.493896 63.174086 5.981964 2.776968 -18.613794 -4.465067 20.962073 -0.000000 -0.000001 0.000001 0.000001 0.000000 -0.000001 6.643180 0.038143 0.038528 13.286804 0.082452 -0.364245 13.286800 0.082455 -0.364244 -2.496195 -0.265398 -0.866089 -2.496198 -0.265400 -0.866088 0.000001 0.000000 -0.000000 -2.496207 -0.265399 -0.866090 -2.496198 -0.265402 -0.866088 -0.000001 -0.000000 -0.000000 0.000001 0.000000 0.000000 9.471843 -12.300799 -12.226656 -25.478474 5.237889 -25.491161 0.098974 -62.736777 0.277299 31.696647 -12.933356 22.515391 8.401812 -11.218949 -14.043204 -1.067068 0.182833 1.946074 0.000002 -0.000001 0.000001 5.776128 -9.584529 -10.641316 0.033767 0.666526 -10.636469 -0.000000 -0.000001 0.000003 1.641878 7.127207 -4.239639 -0.187948 -0.789344 -15.969015 -0.000000 0.000001 -0.000005 1.677309 11.039965 -8.046049 -0.183065 -2.876879 -23.912152 -0.000001 -0.000001 -0.000001 0.734584 28.047566 -16.218745 -0.849523 -6.142205 -29.148259 0.000001 -0.000005 0.000001 0.000002 -0.000001 -0.000000 0.000002 -0.000001 -0.000000 0.000001 -0.000001 -0.000001 -0.000001 -0.000003 0.000001 -0.000001 -0.000003 -0.000000 -0.000001 -0.000003 0.000001 -0.000001 -0.000003 0.000002 -3.743540 3.291208 -0.048329 -14.865847 -6.686891 58.267026 -0.068268 58.941275 -0.154118 37.774962 -9.626608 -17.990092 -4.978389 12.391667 9.407254 -1.210145 -0.220439 -2.121005 -0.000001 0.000000 0.000003 10.258622 13.576576 6.067482 0.012524 -0.647887 4.076588 -0.000000 -0.000001 0.000001 -1.738473 -1.670986 3.393789 -0.252713 0.798094 21.448252 -0.000000 -0.000000 0.000001 -0.824255 -13.700959 18.348851 -0.242216 2.213616 16.221187 -0.000004 -0.000001 -0.000001 -4.380748 -23.900613 30.060298 -0.233908 5.125294 12.870319 0.000001 0.000005 -0.000001 0.000002 0.000003 -0.000000 0.000002 -0.000001 0.000000 0.000002 0.000003 -0.000002 0.000000 -0.000001 -0.000000 0.000001 -0.000001 -0.000002 0.000000 -0.000001 -0.000000 0.000001 -0.000001 -0.000000 -0.000002 -0.000000 -0.000000 -0.000002 -0.000000 -0.000000 -0.000002 -0.000000 -0.000000 -0.000002 -0.000000 -0.000000 -0.000002 -0.000000 -0.000000 -0.000002 -0.000000 -0.000000 -0.000002 -0.000000 -0.000000 -0.000001 -0.000000 0.000000 0.000000 -0.000000 -0.000000 
0.824926 86.298233 3.947311 2.602934 5.352925 3.440572 -0.000000 0.000000 -0.000000 -38.165082 -7.176779 13.044119 37.298621 -0.719950 -1.444080 -0.025360 -5.519507 -17.206099 -0.000000 0.000000 -0.000000 -0.000000 -0.000000 0.000002 -33.609957 -7.737327 -28.124993 59.265278 4.338266 2.465937 -22.317368 -6.865814 16.355658 -0.000001 -0.000002 0.000000 0.000001 0.000001 -0.000001 6.452255 -0.007238 -0.169548 12.904361 -0.031639 -0.849475 12.904378 -0.031639 -0.849476 -2.396789 -0.233628 -0.848376 -2.396795 -0.233629 -0.848375 0.000000 0.000000 -0.000000 -2.396703 -0.233627 -0.848376 -2.396785 -0.233633 -0.848376 -0.000000 -0.000000 -0.000000 0.000000 0.000000 -0.000000 9.361317 -11.642040 -13.432178 -24.056049 6.731945 -27.213166 0.059882 -59.809030 0.235782 31.069550 -12.995414 22.332659 8.182658 -11.697633 -13.845835 -1.067070 0.182832 1.946080 -0.000000 -0.000001 -0.000001 5.776128 -9.584530 -10.641318 0.033767 0.666524 -10.636468 0.000001 0.000000 0.000002 1.641878 7.127206 -4.239642 -0.187948 -0.789344 -15.969011 -0.000000 0.000002 -0.000002 1.677309 11.039964 -8.046049 -0.183066 -2.876877 -23.912152 0.000001 -0.000002 -0.000001 0.734582 28.047564 -16.218742 -0.849523 -6.142205 -29.148259 -0.000003 -0.000005 -0.000000 0.000000 -0.000002 -0.000000 0.000000 -0.000002 -0.000000 -0.000001 -0.000001 -0.000000 -0.000001 0.000001 0.000000 -0.000001 0.000000 -0.000001 -0.000001 0.000001 0.000000 -0.000001 -0.000000 0.000001 -3.643694 2.324634 -0.620556 -13.087569 -7.519586 59.158379 -0.072451 58.898436 -0.152055 38.102695 -10.027923 -18.209158 -4.978387 12.391672 9.407256 -1.210141 -0.220439 -2.121001 0.000000 0.000000 0.000001 10.258621 13.576580 6.067476 0.012522 -0.647888 4.076593 -0.000001 -0.000000 0.000002 -1.738473 -1.670983 3.393793 -0.252713 0.798094 21.448256 0.000002 0.000001 0.000002 -0.824256 -13.700961 18.348852 -0.242215 2.213620 16.221185 -0.000001 -0.000001 0.000001 -4.380753 -23.900608 30.060294 -0.233908 5.125295 12.870316 0.000003 0.000002 -0.000003 -0.000000 -0.000001 0.000002 0.000000 -0.000004 0.000003 -0.000000 -0.000001 0.000002 0.000000 0.000000 0.000001 0.000000 -0.000001 0.000001 0.000000 0.000000 0.000001 0.000000 -0.000001 0.000001 -0.000000 0.000000 -0.000000 -0.000000 0.000000 -0.000000 -0.000000 0.000000 -0.000000 -0.000000 0.000000 -0.000000 -0.000000 0.000000 -0.000000 -0.000000 0.000000 -0.000000 -0.000000 0.000000 -0.000000 -0.000001 0.000001 0.000000 -0.000000 0.000000 -0.000000 
1.055659 86.732796 4.269082 2.140513 5.397340 3.479562 -0.000000 -0.000001 -0.000000 -36.514041 -6.843750 12.601282 36.538541 -0.835789 -1.418854 -1.290485 -4.873401 -16.249677 0.000000 0.000000 -0.000000 -0.000000 0.000000 -0.000002 -29.863066 -8.409911 -26.407062 55.590315 3.640068 2.281717 -24.271533 -8.440167 14.253593 0.000000 0.000000 0.000000 -0.000000 -0.000001 -0.000000 6.278092 -0.081981 -0.319955 12.554652 -0.179532 -1.143387 12.554655 -0.179532 -1.143387 -2.302002 -0.212659 -0.817693 -2.301993 -0.212657 -0.817694 0.000001 -0.000000 -0.000000 -2.302000 -0.212702 -0.817685 -2.302001 -0.212575 -0.817710 0.000002 -0.000000 -0.000000 0.000001 -0.000000 -0.000000 9.313398 -10.959637 -14.168737 -22.757258 8.095351 -28.972361 0.034636 -57.562034 0.207810 30.440213 -13.029323 22.047075 7.964817 -12.198199 -13.586925 -1.067072 0.182830 1.946079 0.000001 -0.000002 -0.000005 5.776129 -9.584527 -10.641319 0.033768 0.666526 -10.636466 0.000002 0.000002 0.000002 1.641878 7.127209 -4.239643 -0.187946 -0.789346 -15.969015 0.000002 0.000002 0.000003 1.677308 11.039966 -8.046051 -0.183068 -2.876875 -23.912152 0.000002 -0.000004 0.000003 0.734585 28.047564 -16.218745 -0.849523 -6.142206 -29.148259 0.000002 -0.000000 0.000004 0.000002 -0.000001 -0.000002 0.000002 -0.000001 -0.000002 0.000001 -0.000000 -0.000002 -0.000001 -0.000002 0.000001 -0.000001 -0.000002 -0.000000 -0.000001 -0.000002 0.000001 -0.000002 -0.000002 0.000002 -3.562354 1.474669 -0.852942 -11.651478 -8.628918 59.815566 -0.073372 59.181171 -0.151231 38.373215 -10.449159 -18.014815 -4.978388 12.391669 9.407257 -1.210139 -0.220436 -2.121005 -0.000001 0.000000 -0.000004 10.258622 13.576576 6.067482 0.012522 -0.647890 4.076589 0.000001 -0.000002 0.000000 -1.738473 -1.670987 3.393793 -0.252715 0.798091 21.448252 -0.000002 -0.000001 0.000003 -0.824253 -13.700959 18.348852 -0.242212 2.213615 16.221189 0.000002 0.000001 -0.000001 -4.380751 -23.900613 30.060298 -0.233910 5.125295 12.870318 0.000000 0.000003 -0.000001 -0.000001 0.000000 -0.000000 -0.000001 -0.000000 0.000000 -0.000001 -0.000000 -0.000000 -0.000000 0.000000 0.000001 -0.000000 0.000000 0.000002 -0.000000 0.000000 0.000001 0.000000 0.000000 0.000003 0.000002 -0.000000 -0.000000 0.000002 -0.000000 -0.000000 0.000002 -0.000000 -0.000000 0.000002 -0.000000 -0.000000 0.000002 -0.000000 -0.000000 0.000002 -0.000000 -0.000000 0.000002 -0.000000 -0.000000 -0.000001 0.000000 0.000000 -0.000000 -0.000001 -0.000000 
1.193602 87.150177 4.420635 1.716146 5.718644 3.241095 -0.000000 -0.000000 -0.000000 -35.002360 -7.254699 12.127248 35.741082 -1.007147 -1.394378 -2.579203 -3.829861 -15.152283 0.000000 -0.000000 -0.000000 -0.000000 -0.000000 0.000000 -27.466146 -9.089416 -25.603140 52.955666 3.428960 2.189716 -24.388324 -9.169817 14.041368 -0.000000 -0.000001 0.000000 0.000001 0.000000 -0.000002 6.154801 -0.162793 -0.378664 12.306840 -0.320721 -1.184280 12.306852 -0.320720 -1.184281 -2.236360 -0.208611 -0.777365 -2.236347 -0.208612 -0.777366 0.000000 0.000000 -0.000000 -2.236273 -0.208607 -0.777366 -2.236416 -0.208614 -0.777367 -0.000000 0.000000 -0.000000 0.000000 0.000000 -0.000000 9.309907 -10.267102 -14.530065 -21.348231 8.929078 -30.493936 0.016132 -55.526074 0.187853 29.766743 -13.081212 21.486802 7.765018 -12.795691 -13.001459 -1.067071 0.182832 1.946085 0.000003 -0.000001 0.000004 5.776130 -9.584531 -10.641318 0.033768 0.666527 -10.636470 0.000001 0.000001 -0.000001 1.641877 7.127208 -4.239638 -0.187949 -0.789347 -15.969016 -0.000001 0.000002 -0.000005 1.677309 11.039963 -8.046049 -0.183068 -2.876873 -23.912149 -0.000000 0.000001 -0.000001 0.734584 28.047566 -16.218744 -0.849519 -6.142206 -29.148263 0.000002 -0.000005 0.000001 0.000000 0.000000 -0.000001 0.000000 0.000000 -0.000001 -0.000000 0.000000 -0.000002 0.000003 -0.000001 -0.000004 0.000002 -0.000002 -0.000006 0.000003 -0.000001 -0.000004 0.000002 -0.000002 -0.000004 -3.504448 0.883460 -0.748220 -10.921326 -9.661290 60.122139 -0.076401 58.995657 -0.147535 38.249315 -10.893509 -18.064990 -4.978386 12.391672 9.407259 -1.210141 -0.220438 -2.121006 -0.000000 -0.000000 -0.000003 10.258623 13.576580 6.067478 0.012523 -0.647886 4.076586 -0.000001 0.000000 0.000002 -1.738473 -1.670987 3.393791 -0.252716 0.798088 21.448245 0.000001 0.000001 0.000004 -0.824256 -13.700958 18.348846 -0.242213 2.213618 16.221182 0.000001 0.000001 -0.000000 -4.380753 -23.900615 30.060291 -0.233913 5.125289 12.870316 -0.000001 -0.000002 0.000003 -0.000002 0.000004 -0.000002 -0.000002 0.000001 0.000000 -0.000002 0.000004 -0.000000 -0.000001 0.000001 0.000000 -0.000001 0.000000 0.000000 -0.000001 0.000001 0.000000 -0.000001 0.000000 0.000002 0.000000 0.000000 -0.000000 0.000000 0.000000 -0.000000 0.000000 0.000000 -0.000000 0.000000 0.000000 -0.000000 0.000000 0.000000 -0.000000 0.000000 0.000000 -0.000000 0.000000 0.000000 -0.000000 -0.000001 -0.000001 -0.000000 -0.000000 -0.000000 -0.000000 
